<svg width="100" height="100" viewBox="0 0 100 100" fill="none" xmlns="http://www.w3.org/2000/svg">
<path d="M24.9167 24.9166C23.6945 26.1388 23.6945 28.1203 24.9167 29.3425L45.1331 49.5589C45.5237 49.9495 45.5237 50.5826 45.1331 50.9732L24.9166 71.1897C23.6945 72.4118 23.6945 74.3933 24.9166 75.6155C26.1388 76.8377 28.1203 76.8377 29.3425 75.6155L49.559 55.399C49.9495 55.0085 50.5827 55.0085 50.9732 55.399L71.1897 75.6155C72.4118 76.8377 74.3934 76.8377 75.6155 75.6155C76.8377 74.3933 76.8377 72.4118 75.6155 71.1897L55.399 50.9732C55.0085 50.5826 55.0085 49.9495 55.399 49.5589L75.6155 29.3425C76.8377 28.1203 76.8377 26.1388 75.6155 24.9166C74.3933 23.6945 72.4118 23.6945 71.1897 24.9166L50.9732 45.1331C50.5827 45.5236 49.9495 45.5236 49.559 45.1331L29.3425 24.9166C28.1203 23.6945 26.1388 23.6945 24.9167 24.9166Z" fill="#BFBFBF"/>
</svg>
